<?xml version="1.0" encoding="UTF-8" standalone="no"?>
<!DOCTYPE svg PUBLIC "-//W3C//DTD SVG 1.1//EN" "http://www.w3.org/Graphics/SVG/1.1/DTD/svg11.dtd">
<svg version="1.1" xmlns="http://www.w3.org/2000/svg" xmlns:xlink="http://www.w3.org/1999/xlink" preserveAspectRatio="xMidYMid meet" viewBox="296.16666666666686 220.94114616950472 51.469999999999914 54.49999999999997" width="46.97" height="50"><defs><path d="M343.21 272.44C344 272.44 344.64 271.8 344.64 271.01C344.64 262.41 344.64 238.03 344.64 229.43C344.64 228.64 344 228 343.21 228C334.1 228 308.2 228 299.1 228C298.31 228 297.67 228.64 297.67 229.43C297.67 238.03 297.67 262.41 297.67 271.01C297.67 271.8 298.31 272.44 299.1 272.44C308.2 272.44 334.1 272.44 343.21 272.44Z" id="alPp2YJv9"></path><path d="M310.29 232.29L310.29 222.44" id="blEk6qfBE"></path><path d="M331.76 232.29L331.76 222.44" id="a276Iht5M8"></path><path d="" id="b2BICbcZdf"></path><path d="" id="bDpvJalAG"></path><path d="M344.64 240.12L297.67 240.12" id="dniN4p4CU"></path><path d="" id="a2mbdt9J5i"></path><path d="M310.29 250.98C310.29 252.37 309.16 253.5 307.77 253.5C306.37 253.5 305.24 252.37 305.24 250.98C305.24 249.58 306.37 248.45 307.77 248.45C309.16 248.45 310.29 249.58 310.29 250.98Z" id="d1Wpzz8Ge"></path><path d="M310.29 262.09C310.29 263.48 309.16 264.61 307.77 264.61C306.37 264.61 305.24 263.48 305.24 262.09C305.24 260.69 306.37 259.56 307.77 259.56C309.16 259.56 310.29 260.69 310.29 262.09Z" id="b5hyo66FPP"></path><path d="M336.81 250.98C336.81 252.37 335.68 253.5 334.28 253.5C332.89 253.5 331.76 252.37 331.76 250.98C331.76 249.58 332.89 248.45 334.28 248.45C335.68 248.45 336.81 249.58 336.81 250.98Z" id="c5CfR1xzu"></path><path d="M336.81 262.09C336.81 263.48 335.68 264.61 334.28 264.61C332.89 264.61 331.76 263.48 331.76 262.09C331.76 260.69 332.89 259.56 334.28 259.56C335.68 259.56 336.81 260.69 336.81 262.09Z" id="a2kPtBp7i4"></path><path d="M323.68 250.98C323.68 252.37 322.55 253.5 321.15 253.5C319.76 253.5 318.63 252.37 318.63 250.98C318.63 249.58 319.76 248.45 321.15 248.45C322.55 248.45 323.68 249.58 323.68 250.98Z" id="aavSVkX0V"></path><path d="M323.68 262.09C323.68 263.48 322.55 264.61 321.15 264.61C319.76 264.61 318.63 263.48 318.63 262.09C318.63 260.69 319.76 259.56 321.15 259.56C322.55 259.56 323.68 260.69 323.68 262.09Z" id="f22jHpTfcp"></path></defs><g><g><g><use xlink:href="#alPp2YJv9" opacity="1" fill-opacity="0" stroke="#000000" stroke-width="4" stroke-opacity="1"></use></g></g><g><g><use xlink:href="#blEk6qfBE" opacity="1" fill-opacity="0" stroke="#000000" stroke-width="4" stroke-opacity="1"></use></g></g><g><g><use xlink:href="#a276Iht5M8" opacity="1" fill-opacity="0" stroke="#000000" stroke-width="4" stroke-opacity="1"></use></g></g><g><g><use xlink:href="#b2BICbcZdf" opacity="1" fill-opacity="0" stroke="#000000" stroke-width="4" stroke-opacity="1"></use></g></g><g><g><use xlink:href="#bDpvJalAG" opacity="1" fill-opacity="0" stroke="#000000" stroke-width="4" stroke-opacity="1"></use></g></g><g><g><use xlink:href="#dniN4p4CU" opacity="1" fill-opacity="0" stroke="#000000" stroke-width="4" stroke-opacity="1"></use></g></g><g><g><use xlink:href="#a2mbdt9J5i" opacity="1" fill-opacity="0" stroke="#000000" stroke-width="4" stroke-opacity="1"></use></g></g><g><use xlink:href="#d1Wpzz8Ge" opacity="1" fill="#000000" fill-opacity="1"></use></g><g><use xlink:href="#b5hyo66FPP" opacity="1" fill="#000000" fill-opacity="1"></use></g><g><use xlink:href="#c5CfR1xzu" opacity="1" fill="#000000" fill-opacity="1"></use></g><g><use xlink:href="#a2kPtBp7i4" opacity="1" fill="#000000" fill-opacity="1"></use></g><g><use xlink:href="#aavSVkX0V" opacity="1" fill="#000000" fill-opacity="1"></use></g><g><use xlink:href="#f22jHpTfcp" opacity="1" fill="#000000" fill-opacity="1"></use></g></g></svg>
