<?xml version="1.0" encoding="UTF-8" standalone="no"?>
<!DOCTYPE svg PUBLIC "-//W3C//DTD SVG 1.1//EN" "http://www.w3.org/Graphics/SVG/1.1/DTD/svg11.dtd">
<svg version="1.1" xmlns="http://www.w3.org/2000/svg" xmlns:xlink="http://www.w3.org/1999/xlink" preserveAspectRatio="xMidYMid meet" viewBox="194.23104073495696 209.956795650122 53.83000000000001 55.5" width="48.33" height="50"><defs><path d="M245.06 238.94C245.06 225.95 245.06 217.83 245.06 214.58C245.06 213.41 244.11 212.46 242.93 212.46C233.69 212.46 207.91 212.46 198.62 212.46C197.58 212.46 196.73 213.3 196.73 214.35C196.73 223.97 196.73 250.75 196.73 260.33C196.73 261.5 197.68 262.46 198.86 262.46C201.54 262.46 208.23 262.46 218.94 262.46" id="anyPkQTdW"></path><path d="M231.16 229.46L209.97 229.46" id="a1kz7Pa01d"></path><path d="M231.16 241.58L209.97 241.58" id="b1i4IqgqH"></path><path d="M245.06 250.19C239.21 256.04 235.55 259.7 234.08 261.17C233.57 261.68 232.74 261.65 232.26 261.11C231.67 260.45 230.2 258.8 227.85 256.15" id="l22ZrBKdxR"></path></defs><g><g><g><use xlink:href="#anyPkQTdW" opacity="1" fill-opacity="0" stroke="#000000" stroke-width="4" stroke-opacity="1"></use></g></g><g><g><use xlink:href="#a1kz7Pa01d" opacity="1" fill-opacity="0" stroke="#000000" stroke-width="4" stroke-opacity="1"></use></g></g><g><g><use xlink:href="#b1i4IqgqH" opacity="1" fill-opacity="0" stroke="#000000" stroke-width="4" stroke-opacity="1"></use></g></g><g><g><use xlink:href="#l22ZrBKdxR" opacity="1" fill-opacity="0" stroke="#000000" stroke-width="4" stroke-opacity="1"></use></g></g></g></svg>
