<?xml version="1.0" encoding="UTF-8" standalone="no"?>
<!DOCTYPE svg PUBLIC "-//W3C//DTD SVG 1.1//EN" "http://www.w3.org/Graphics/SVG/1.1/DTD/svg11.dtd">
<svg version="1.1" xmlns="http://www.w3.org/2000/svg" xmlns:xlink="http://www.w3.org/1999/xlink" preserveAspectRatio="xMidYMid meet" viewBox="-1 -0.9999999999999787 644 418.79998779296926" width="640" height="414.8"><defs><path d="M0 0L640 0L640 414.8L0 414.8L0 0Z" id="avBRrx1ED"></path><linearGradient id="gradientb3mtZ9mjeL" gradientUnits="userSpaceOnUse" x1="320" y1="0" x2="320" y2="414.8"><stop style="stop-color: #e97d56;stop-opacity: 1" offset="0%"></stop><stop style="stop-color: #f1a877;stop-opacity: 1" offset="100%"></stop></linearGradient><path d="M138 91.8C138 103.94 128.14 113.8 116 113.8C103.86 113.8 94 103.94 94 91.8C94 79.66 103.86 69.8 116 69.8C128.14 69.8 138 79.66 138 91.8Z" id="c6L40KPdrw"></path><path d="M231 156.8C231 163.97 225.17 169.8 218 169.8C210.83 169.8 205 163.97 205 156.8C205 149.63 210.83 143.8 218 143.8C225.17 143.8 231 149.63 231 156.8Z" id="eNZ1s3hru"></path><path d="M499 317.3C499 336.34 483.54 351.8 464.5 351.8C445.46 351.8 430 336.34 430 317.3C430 298.26 445.46 282.8 464.5 282.8C483.54 282.8 499 298.26 499 317.3Z" id="d1ngutmUyC"></path><path d="M546.94 299.04L549.87 299.34L552.75 299.75L555.6 300.27L558.41 300.91L561.18 301.65L563.91 302.5L566.58 303.45L569.21 304.5L571.78 305.65L574.31 306.9L576.77 308.24L579.18 309.67L581.52 311.19L583.81 312.8L586.02 314.49L588.17 316.26L590.25 318.11L592.26 320.04L594.19 322.05L596.04 324.13L597.81 326.28L599.5 328.49L601.11 330.78L602.63 333.12L604.06 335.53L605.4 337.99L606.65 340.52L607.8 343.09L608.85 345.72L609.8 348.39L610.65 351.12L611.39 353.89L612.03 356.7L612.55 359.55L612.96 362.43L613.26 365.36L613.44 368.31L613.5 371.3L613.44 374.29L613.26 377.24L612.96 380.17L612.55 383.05L612.03 385.9L611.39 388.71L610.65 391.48L609.8 394.21L608.85 396.88L607.8 399.51L606.65 402.08L605.4 404.61L604.06 407.07L602.63 409.48L601.11 411.82L599.5 414.11L598.97 414.8L483.03 414.8L482.5 414.11L480.89 411.82L479.37 409.48L477.94 407.07L476.6 404.61L475.35 402.08L474.2 399.51L473.15 396.88L472.2 394.21L471.35 391.48L470.61 388.71L469.97 385.9L469.45 383.05L469.04 380.17L468.74 377.24L468.56 374.29L468.5 371.3L468.56 368.31L468.74 365.36L469.04 362.43L469.45 359.55L469.97 356.7L470.61 353.89L471.35 351.12L472.2 348.39L473.15 345.72L474.2 343.09L475.35 340.52L476.6 337.99L477.94 335.53L479.37 333.12L480.89 330.78L482.5 328.49L484.19 326.28L485.96 324.13L487.81 322.05L489.74 320.04L491.75 318.11L493.83 316.26L495.98 314.49L498.19 312.8L500.48 311.19L502.82 309.67L505.23 308.24L507.69 306.9L510.22 305.65L512.79 304.5L515.42 303.45L518.09 302.5L520.82 301.65L523.59 300.91L526.4 300.27L529.25 299.75L532.13 299.34L535.06 299.04L538.01 298.86L541 298.8L543.99 298.86L546.94 299.04Z" id="b2DR7AIy0L"></path></defs><g><g><use xlink:href="#avBRrx1ED" opacity="1" fill="url(#gradientb3mtZ9mjeL)"></use></g><g><use xlink:href="#c6L40KPdrw" opacity="0.3" fill="#ffffff" fill-opacity="1"></use></g><g><use xlink:href="#eNZ1s3hru" opacity="0.15" fill="#ffffff" fill-opacity="1"></use></g><g><use xlink:href="#d1ngutmUyC" opacity="0.12" fill="#ffffff" fill-opacity="1"></use></g><g><use xlink:href="#b2DR7AIy0L" opacity="0.1" fill="#ffffff" fill-opacity="1"></use></g></g></svg>