<?xml version="1.0" encoding="UTF-8" standalone="no"?>
<!DOCTYPE svg PUBLIC "-//W3C//DTD SVG 1.1//EN" "http://www.w3.org/Graphics/SVG/1.1/DTD/svg11.dtd">
<svg version="1.1" xmlns="http://www.w3.org/2000/svg" xmlns:xlink="http://www.w3.org/1999/xlink" preserveAspectRatio="xMidYMid meet" viewBox="288.82500076293934 242.44504057746838 55 53.14999999999998" width="50" height="48.15"><defs><path d="M340.83 254.97L290.83 254.97" id="c1PVZjHegl"></path><path d="M335.43 253.92C335.43 273.35 335.43 285.5 335.43 290.36C335.43 291.6 334.43 292.6 333.2 292.6C325.8 292.6 305.85 292.6 298.45 292.6C297.22 292.6 296.22 291.6 296.22 290.36C296.22 285.5 296.22 273.35 296.22 253.92" id="d5tWjGUrJM"></path><path d="M325.56 253.92C325.56 249.66 325.56 247 325.56 245.93C325.56 245.11 324.9 244.45 324.07 244.45C321.74 244.45 316.23 244.45 313.89 244.45C313.89 244.45 310.92 244.45 310.92 244.45C309.95 244.45 308.54 244.45 307.58 244.45C306.75 244.45 306.09 245.11 306.09 245.93C306.09 247 306.09 249.66 306.09 253.92" id="e1Tcj3NtDw"></path></defs><g><g><g><use xlink:href="#c1PVZjHegl" opacity="1" fill-opacity="0" stroke="#000000" stroke-width="4" stroke-opacity="1"></use></g></g><g><g><use xlink:href="#d5tWjGUrJM" opacity="1" fill-opacity="0" stroke="#000000" stroke-width="4" stroke-opacity="1"></use></g></g><g><g><use xlink:href="#e1Tcj3NtDw" opacity="1" fill-opacity="0" stroke="#000000" stroke-width="4" stroke-opacity="1"></use></g></g></g></svg>